<svg width="70" height="70" viewBox="0 0 70 70" fill="none" xmlns="http://www.w3.org/2000/svg">
<path d="M35 70C54.33 70 70 54.33 70 35C70 15.67 54.33 0 35 0C15.67 0 0 15.67 0 35C0 54.33 15.67 70 35 70Z" fill="url(#paint0_linear_3204_7)"/>
<path d="M15.8773 5.97653C4.24106 16.5612 5.50387 35.6321 18.7014 48.5679C31.8943 61.5037 52.0212 63.414 63.662 52.8247C64.9808 51.625 66.134 50.3165 67.123 48.9204C68.9744 44.6542 70.0007 39.947 70.0007 35C70.0007 15.67 54.3307 0 35.0007 0C28.4946 0 22.4032 1.77518 17.1843 4.8676C16.7378 5.22066 16.3019 5.59028 15.8773 5.97653Z" fill="url(#paint1_radial_3204_7)"/>
<path d="M18.2534 5.97443C12.746 14.3623 19.1598 27.3974 32.5811 35.0813C46.0024 42.7698 61.3424 42.1993 66.8544 33.8068C68.411 31.4368 69.0165 28.6965 68.7818 25.8111C64.7459 10.9386 51.1506 0 35.0005 0C30.1232 0 25.4789 0.997608 21.2606 2.7999C20.0726 3.69041 19.058 4.74905 18.2534 5.97443Z" fill="url(#paint2_radial_3204_7)"/>
<defs>
<linearGradient id="paint0_linear_3204_7" x1="53.9106" y1="113.503" x2="30.0808" y2="-44.7522" gradientUnits="userSpaceOnUse">
<stop stop-color="white" stop-opacity="0"/>
<stop offset="0.303516" stop-color="white" stop-opacity="0.26"/>
<stop offset="0.733277" stop-color="white" stop-opacity="0.88"/>
<stop offset="1" stop-color="white"/>
</linearGradient>
<radialGradient id="paint1_radial_3204_7" cx="0" cy="0" r="1" gradientTransform="matrix(-17.7303 60.7895 -51.0433 -15.1918 71.6118 37.9934)" gradientUnits="userSpaceOnUse">
<stop offset="0.03" stop-color="white" stop-opacity="0"/>
<stop offset="0.279744" stop-color="white" stop-opacity="0"/>
<stop offset="0.450971" stop-color="white" stop-opacity="0.17"/>
<stop offset="1" stop-color="white" stop-opacity="0.65"/>
</radialGradient>
<radialGradient id="paint2_radial_3204_7" cx="0" cy="0" r="1" gradientTransform="matrix(53.2088 70.9608 -80.2925 57.7993 92.2198 -12.8286)" gradientUnits="userSpaceOnUse">
<stop stop-color="white" stop-opacity="0"/>
<stop offset="0.136507" stop-color="white" stop-opacity="0"/>
<stop offset="0.397079" stop-color="white" stop-opacity="0"/>
<stop offset="0.725487" stop-color="white" stop-opacity="0.8"/>
<stop offset="1" stop-color="white"/>
</radialGradient>
</defs>
</svg>
